<?xml version="1.0" encoding="UTF-8" standalone="no"?>
<svg
   xmlns:dc="http://purl.org/dc/elements/1.1/"
   xmlns:cc="http://creativecommons.org/ns#"
   xmlns:rdf="http://www.w3.org/1999/02/22-rdf-syntax-ns#"
   xmlns:svg="http://www.w3.org/2000/svg"
   xmlns="http://www.w3.org/2000/svg"
   xmlns:sodipodi="http://sodipodi.sourceforge.net/DTD/sodipodi-0.dtd"
   xmlns:inkscape="http://www.inkscape.org/namespaces/inkscape"
   width="210mm"
   height="297mm"
   viewBox="0 0 210 297"
   version="1.1"
   id="svg8"
   inkscape:version="1.0.2 (e86c8708, 2021-01-15)"
   sodipodi:docname="a11y-icon.svg">
  <defs
     id="defs2" />
  <sodipodi:namedview
     id="base"
     pagecolor="#ffffff"
     bordercolor="#666666"
     borderopacity="1.0"
     inkscape:pageopacity="0.0"
     inkscape:pageshadow="2"
     inkscape:zoom="0.35"
     inkscape:cx="400"
     inkscape:cy="560"
     inkscape:document-units="mm"
     inkscape:current-layer="layer1"
     inkscape:document-rotation="0"
     showgrid="false"
     inkscape:window-width="1248"
     inkscape:window-height="678"
     inkscape:window-x="166"
     inkscape:window-y="25"
     inkscape:window-maximized="0" />
  <metadata
     id="metadata5">
    <rdf:RDF>
      <cc:Work
         rdf:about="">
        <dc:format>image/svg+xml</dc:format>
        <dc:type
           rdf:resource="http://purl.org/dc/dcmitype/StillImage" />
        <dc:title />
      </cc:Work>
    </rdf:RDF>
  </metadata>
  <g
     inkscape:label="Ebene 1"
     inkscape:groupmode="layer"
     id="layer1">
    <path
       style="fill:#000000;stroke-width:0.236007"
       d="m 82.050955,207.60614 c -1.563215,-0.77898 -2.710071,-2.06447 -3.337183,-3.74058 -0.911355,-2.43581 -1.008328,-2.05259 4.454918,-17.60451 0.934774,-2.66097 1.785222,-5.10364 1.889881,-5.42815 0.347515,-1.07752 3.085782,-8.8132 3.968213,-11.21031 l 0.868792,-2.36007 0.06177,-18.93434 0.06176,-18.93434 -0.533778,-0.12459 c -0.293581,-0.0685 -3.295058,-0.65822 -6.669953,-1.31044 -12.818282,-2.47722 -17.029523,-3.29529 -18.172507,-3.53016 -0.649019,-0.13336 -2.279649,-0.45364 -3.623622,-0.71172 -3.893129,-0.7476 -5.512853,-1.7047 -6.648909,-3.92886 -0.493124,-0.96543 -0.583773,-1.47273 -0.583773,-3.26696 0,-1.95838 0.05661,-2.21611 0.725689,-3.3041 0.830021,-1.34968 2.56498,-2.76528 3.867384,-3.15549 1.378314,-0.41295 2.743294,-0.32396 6.536356,0.42612 1.92664,0.381 6.582866,1.28779 10.347171,2.01511 3.764305,0.72731 7.906221,1.54004 9.204257,1.80606 2.401379,0.49215 3.363087,0.65283 7.554968,1.26222 9.432541,1.37127 19.786271,1.41332 29.970081,0.12173 2.84028,-0.36023 3.4877,-0.47717 15.69444,-2.83475 1.36294,-0.26323 5.43408,-1.06012 9.04697,-1.77085 3.6129,-0.71073 7.08706,-1.29224 7.72036,-1.29224 4.11977,0 7.50296,4.14701 6.59442,8.08322 -0.54329,2.35376 -1.86846,4.02036 -3.9227,4.93335 -0.53654,0.23846 -2.6075,0.7531 -4.60213,1.14366 -14.49624,2.83841 -19.51347,3.81292 -23.80517,4.62376 -1.88215,0.35559 -3.5573,0.75023 -3.72254,0.87696 -0.23979,0.1839 -0.28725,4.02362 -0.23506,19.01854 l 0.0654,18.78811 1.37563,3.77611 c 1.60937,4.41777 1.89451,5.22412 6.30089,17.81849 4.01047,11.4628 3.99815,11.42374 4.00136,12.6765 0.004,1.39096 -0.84145,3.4955 -1.855,4.61989 -1.28674,1.42746 -2.82154,2.05104 -5.05504,2.05385 -2.03591,0.003 -3.04149,-0.37121 -4.54106,-1.68785 -1.34676,-1.18247 -1.26954,-0.99336 -6.24868,-15.30232 -1.01629,-2.92058 -2.44981,-7.0094 -3.1856,-9.08625 -0.73579,-2.07686 -1.5319,-4.36023 -1.76912,-5.07415 -1.03078,-3.1021 -2.44145,-7.01223 -2.74151,-7.59901 -1.26304,-2.46986 -5.34878,-2.79972 -7.0479,-0.569 -0.30742,0.40359 -1.21123,2.59236 -2.00848,4.86392 -0.79725,2.27157 -1.75289,4.97974 -2.123641,6.01817 -0.370752,1.03843 -1.538577,4.38382 -2.595169,7.43421 -1.056589,3.05038 -2.277581,6.55508 -2.713311,7.78821 -0.435732,1.23314 -1.34418,3.83511 -2.018779,5.78216 -1.36611,3.94294 -1.762259,4.71515 -2.957075,5.76421 -1.476979,1.29681 -2.489469,1.67 -4.530777,1.67 -1.512496,0 -2.072662,-0.1104 -3.062226,-0.60352 z m 21.402015,-99.54452 c -5.504165,-1.62985 -9.440537,-6.42564 -10.034764,-12.225644 -0.404801,-3.951087 1.452545,-8.702045 4.485749,-11.474222 1.466587,-1.340378 4.073285,-2.77158 5.927695,-3.254594 1.66307,-0.433175 5.51268,-0.435487 7.13251,-0.0043 4.47679,1.191737 8.5192,5.10967 9.8107,9.508596 1.84491,6.283898 -1.03096,13.316824 -6.67572,16.325454 -3.1985,1.70478 -7.24388,2.13215 -10.64617,1.12469 z"
       id="path16" />
  </g>
</svg>
